# xmcd
#
# Track frame offsets:
#	150
#	35721
#	66681
#	91552
#	110184
#	127188
#	150034
#	178800
#	191812
#	199980
#	224434
#	238290
#	245163
#	264866
#	287820
#
# Disc length: 4082 seconds
#
# Revision: 2
# Processed by: cddbd v1.5.2PL0 Copyright (c) Steve Scherf et al.
# Submitted via: EZCDAudioConverter 7.0.5.1
#
DISCID=f00ff00f
DTITLE=Beatrice-Maria Weinberger - Johann Ludwig Krebs - Organ Works Vol. 6
DYEAR=2005
DGENRE=Organ
TTITLE0=Praeludium et Fuga in f - Praeludium
TTITLE1=Praeludium et Fuga in f - Fuga
TTITLE2=Choralbearbeitung - Herr Jesu Christ, du hoechtest Gut
TTITLE3=Choralbearbeitung - Ah Gott, erhoer mein Seufzen
TTITLE4=Choralbearbeitung - Heute triumphieret Gottes Sohn
TTITLE5=Choralbearbeitung - O Ewigkeit, du Donnerwort
TTITLE6=Trio in e - Andante
TTITLE7=Trio in C - Andante
TTITLE8=Fuga in B
TTITLE9=Trio in Es - Adagio - Non molto allegro
TTITLE10=Trio in B - Largo
TTITLE11=Praeludium in c
TTITLE12=Choralbearbeitung - Herr , ich habe missgehandelt
TTITLE13=Choralbearbeitung - Herzlich lieb hab ich dich, o Herr
TTITLE14=Choralbearbeitung - Herzlich lieb hab ich dich, o Herr
EXTD=
EXTT0=
EXTT1=
EXTT2=
EXTT3=
EXTT4=
EXTT5=
EXTT6=
EXTT7=
EXTT8=
EXTT9=
EXTT10=
EXTT11=
EXTT12=
EXTT13=
EXTT14=
PLAYORDER=
